<?xml version="1.0" encoding="UTF-8" standalone="no"?>
<!-- Created with Inkscape (http://www.inkscape.org/) -->

<svg
   xmlns:dc="http://purl.org/dc/elements/1.1/"
   xmlns:cc="http://creativecommons.org/ns#"
   xmlns:rdf="http://www.w3.org/1999/02/22-rdf-syntax-ns#"
   xmlns:svg="http://www.w3.org/2000/svg"
   xmlns="http://www.w3.org/2000/svg"
   xmlns:sodipodi="http://sodipodi.sourceforge.net/DTD/sodipodi-0.dtd"
   xmlns:inkscape="http://www.inkscape.org/namespaces/inkscape"
   width="44"
   height="44"
   id="svg3817"
   version="1.1"
   inkscape:version="0.48.5 r10040"
   sodipodi:docname="colorButton.svg"
   inkscape:export-filename="/Users/murata/Desktop/ScrubPhoto/ScrubPhoto/button/colorButton.png"
   inkscape:export-xdpi="90"
   inkscape:export-ydpi="90">
  <defs
     id="defs3819" />
  <sodipodi:namedview
     id="base"
     pagecolor="#ffffff"
     bordercolor="#666666"
     borderopacity="1.0"
     inkscape:pageopacity="0.0"
     inkscape:pageshadow="2"
     inkscape:zoom="14.477273"
     inkscape:cx="22"
     inkscape:cy="22"
     inkscape:document-units="px"
     inkscape:current-layer="layer1"
     showgrid="false"
     inkscape:window-width="1440"
     inkscape:window-height="852"
     inkscape:window-x="66"
     inkscape:window-y="16"
     inkscape:window-maximized="0" />
  <metadata
     id="metadata3822">
    <rdf:RDF>
      <cc:Work
         rdf:about="">
        <dc:format>image/svg+xml</dc:format>
        <dc:type
           rdf:resource="http://purl.org/dc/dcmitype/StillImage" />
        <dc:title></dc:title>
      </cc:Work>
    </rdf:RDF>
  </metadata>
  <g
     inkscape:label="レイヤー 1"
     inkscape:groupmode="layer"
     id="layer1"
     transform="translate(0,-1008.3622)">
    <path
       style="fill:#000000;stroke:#000000;stroke-width:1px;stroke-linecap:butt;stroke-linejoin:miter;stroke-opacity:1;fill-opacity:1"
       d="M 22.90625 7.90625 C 21.008814 7.8934295 19.022436 8.0560897 17.125 8.3125 C 9.5352565 9.338141 4.7163461 13.330931 2.5625 17.84375 C 0.91189603 21.302158 2.2192745 26.97013 2.96875 28.40625 C 3.449117 29.326713 4.3841884 32.404032 7.59375 35.1875 C 10.35302 30.3211 17.115514 21.238956 22.25 15.1875 C 21.623676 14.628318 21.21875 13.842432 21.21875 12.9375 C 21.21875 11.238162 22.613162 9.84375 24.3125 9.84375 C 25.120935 9.84375 25.82931 10.173627 26.375 10.6875 C 27.18433 9.9102573 27.800526 9.4175009 28.1875 9.28125 C 27.976992 8.9742627 27.880468 8.6636817 27.8125 8.375 C 26.308761 8.0554691 24.637204 7.9179457 22.90625 7.90625 z M 13.4375 11.0625 C 15.136838 11.0625 16.5 12.456912 16.5 14.15625 C 16.5 15.855588 15.136838 17.21875 13.4375 17.21875 C 11.738162 17.21875 10.34375 15.855588 10.34375 14.15625 C 10.34375 12.456912 11.738162 11.0625 13.4375 11.0625 z M 33.4375 12.5 C 33.478081 13.239673 32.072991 15.622616 29.9375 18.71875 C 30.862074 18.485563 31.680288 18.228365 32.21875 17.84375 C 34.372596 16.305288 34.25 13.75 34.25 13.75 C 34.198235 13.387642 34.112086 13.042144 34 12.71875 C 33.808083 12.656887 33.622282 12.56812 33.4375 12.5 z M 8.3125 20.9375 C 10.011838 20.9375 11.375 22.300662 11.375 24 C 11.375 25.699338 10.011838 27.0625 8.3125 27.0625 C 6.6131623 27.0625 5.21875 25.699338 5.21875 24 C 5.21875 22.300662 6.6131623 20.9375 8.3125 20.9375 z M 25.90625 24.25 C 21.842516 29.605181 17.022354 35.35607 13.6875 38.59375 C 15.113696 39.085918 16.716702 39.508985 18.5625 39.78125 C 35.743877 42.315593 43.772306 33.773123 41.125 28.09375 C 38.619517 22.718634 29.490231 26.043418 25.90625 24.25 z M 33.375 26.78125 C 34.196846 26.732074 34.882058 26.91618 35.21875 27.34375 C 35.892133 28.198891 34.959808 29.713529 33.125 30.71875 C 31.290192 31.723971 29.235883 31.823891 28.5625 30.96875 C 27.889117 30.113609 28.852692 28.630221 30.6875 27.625 C 31.604904 27.122389 32.553154 26.830426 33.375 26.78125 z M 24.625 31.5 C 26.324338 31.5 27.6875 32.863162 27.6875 34.5625 C 27.6875 36.261838 26.324338 37.65625 24.625 37.65625 C 22.925662 37.65625 21.53125 36.261838 21.53125 34.5625 C 21.53125 32.863162 22.925662 31.5 24.625 31.5 z "
       transform="translate(0,1008.3622)"
       id="path4394" />
    <g
       id="g4561"
       transform="translate(-0.27315542,0)">
      <path
         sodipodi:nodetypes="ccssccc"
         inkscape:connector-curvature="0"
         id="path4434"
         d="m 29.200643,1013.9501 c 4.446496,-6.1722 13.347298,-1.8393 13.347298,-1.8393 0,0 -1.697041,-0.5731 -3.586093,0.9088 -1.889052,1.4819 -1.213811,2.1438 -0.993571,3.7308 0.220292,1.5868 -0.0046,3.5006 -3.015793,3.6799 -3.219887,-1.0379 -5.473926,-3.0452 -5.473926,-3.0452 -1.590321,-1.7149 -0.277915,-3.435 -0.277915,-3.435 z"
         style="fill:none;stroke:#000000;stroke-width:1px;stroke-linecap:butt;stroke-linejoin:miter;stroke-opacity:1" />
      <path
         inkscape:connector-curvature="0"
         id="path4436"
         d="m 42.804999,1012.2756 c 0,0 -6.071719,-2.9531 -10.690361,-0.5077 l 5.809924,3.6169 c -0.07244,-0.6924 0.145589,-1.302 1.3012,-2.2085 1.889105,-1.482 3.579237,-0.9007 3.579237,-0.9007 z"
         style="fill:#000000;fill-opacity:1;stroke:#000000;stroke-width:1px;stroke-linecap:butt;stroke-linejoin:miter;stroke-opacity:1" />
    </g>
    <path
       style="fill:none;stroke:#000000;stroke-width:1px;stroke-linecap:butt;stroke-linejoin:miter;stroke-opacity:1"
       d="m 28.343316,1017.6067 c -2.624803,0.2763 -22.172684,25.7646 -22.034537,29.011 -0.55259,2.4176 -0.414442,4.9043 4.351648,2.8321 4.627944,-2.1413 23.883885,-27.1671 22.725275,-28.7348 -0.808352,-1.0937 -3.246468,-2.5591 -5.042386,-3.1083 z"
       id="path4458"
       inkscape:connector-curvature="0"
       sodipodi:nodetypes="cccsc" />
    <path
       style="fill:#000000;fill-opacity:1;stroke:#000000;stroke-width:0.94361365"
       d="m 19.278657,1027.1828 c -0.883768,1.1222 -1.749245,2.2161 -2.625,3.375 l 6.84375,5.1876 c 0.902297,-1.125 1.790085,-2.2786 2.65625,-3.4062 l -6.875,-5.1564 z"
       id="rect4462"
       inkscape:connector-curvature="0" />
    <path
       id="path4521"
       d="m 43.224746,959.41574 c -1.897436,-0.0128 -3.883814,0.14984 -5.78125,0.40625 -7.589743,1.02564 -12.408654,5.01843 -14.5625,9.5312 -1.650604,3.4585 -0.343225,9.1264 0.40625,10.5625 0.822061,1.5752 2.946749,9.50949 15.59375,11.37499 17.181377,2.5344 25.209806,-6.00812 22.5625,-11.68749 -2.922556,-6.2698 -14.870542,-0.6875 -16.5,-5.2187 -1.429738,-3.9758 5.439904,-3.4928 7.59375,-5.0313 2.153846,-1.5384 2.03125,-4.0937 2.03125,-4.0937 -0.615385,-4.3077 -5.651442,-5.80529 -11.34375,-5.84375 z m 1.40625,1.9375 c 1.699338,0 3.0625,1.39441 3.0625,3.09375 0,1.69933 -1.363162,3.0625 -3.0625,3.0625 -1.699338,0 -3.09375,-1.36317 -3.09375,-3.0625 0,-1.69934 1.394412,-3.09375 3.09375,-3.09375 z m -10.875,1.21875 c 1.699338,0 3.0625,1.39441 3.0625,3.09375 0,1.69935 -1.363162,3.06245 -3.0625,3.06245 -1.699338,0 -3.09375,-1.3631 -3.09375,-3.06245 0,-1.69934 1.394412,-3.09375 3.09375,-3.09375 z m -5.125,9.875 c 1.699338,0 3.0625,1.3632 3.0625,3.0625 0,1.6993 -1.363162,3.0625 -3.0625,3.0625 -1.699337,0 -3.09375,-1.3632 -3.09375,-3.0625 0,-1.6993 1.394413,-3.0625 3.09375,-3.0625 z m 25.0625,5.8437 c 0.821846,-0.049 1.507058,0.135 1.84375,0.5625 0.673383,0.8552 -0.258942,2.3698 -2.09375,3.375 -1.834808,1.00527 -3.889117,1.10517 -4.5625,0.25 -0.673383,-0.8551 0.290192,-2.3385 2.125,-3.3437 0.917404,-0.5026 1.865654,-0.7946 2.6875,-0.8438 z m -8.75,4.71877 c 1.699338,0 3.0625,1.3632 3.0625,3.0625 0,1.69932 -1.363162,3.09372 -3.0625,3.09372 -1.699338,0 -3.09375,-1.3944 -3.09375,-3.09372 0,-1.6993 1.394412,-3.0625 3.09375,-3.0625 z"
       style="fill:#000000;fill-opacity:1;stroke:#000000;stroke-width:1px;stroke-linecap:butt;stroke-linejoin:miter;stroke-opacity:1"
       inkscape:connector-curvature="0" />
  </g>
</svg>
